<svg xmlns="http://www.w3.org/2000/svg" width="89.017" height="89.017" viewBox="0 0 89.017 89.017">
  <g id="logo" transform="translate(-17.486 -17.646)">
    <g id="Group_6" data-name="Group 6" transform="translate(-31 -94)">
      <g id="chip" transform="translate(-95 -1)">
        <g id="Rectangle_1" data-name="Rectangle 1" transform="translate(158 127)" fill="none" stroke="#13a740" stroke-width="1">
          <rect width="60" height="60" rx="7" stroke="none"/>
          <rect x="0.5" y="0.5" width="59" height="59" rx="6.5" fill="none"/>
        </g>
        <g id="Rectangle_2" data-name="Rectangle 2" transform="translate(166 135)" fill="none" stroke="#eb952a" stroke-width="1">
          <rect width="44" height="44" rx="5" stroke="none"/>
          <rect x="0.5" y="0.5" width="43" height="43" rx="4.5" fill="none"/>
        </g>
        <g id="Logo_1" data-name="Logo #1" transform="translate(176 142)">
          <line id="Line_13" data-name="Line 13" y2="3" transform="translate(14 22)" fill="none" stroke="#13a740" stroke-linecap="round" stroke-width="2"/>
          <g id="Ellipse_2" data-name="Ellipse 2" transform="translate(13 28.5)" fill="#fff" stroke="#13a740" stroke-width="2">
            <circle cx="1" cy="1" r="1" stroke="none"/>
            <circle cx="1" cy="1" fill="none"/>
          </g>
          <line id="Line_15" data-name="Line 15" x2="23" transform="translate(0 5)" fill="none" stroke="#13a740" stroke-linecap="round" stroke-width="2"/>
          <line id="Line_11" data-name="Line 11" y1="17" x2="23" transform="translate(0 5)" fill="none" stroke="#13a740" stroke-linecap="round" stroke-width="2"/>
          <line id="Line_12" data-name="Line 12" x1="23" transform="translate(0 22)" fill="none" stroke="#13a740" stroke-linecap="round" stroke-width="2"/>
          <line id="Line_10" data-name="Line 10" y2="9" transform="translate(23 22)" fill="none" stroke="#13a740" stroke-linecap="round" stroke-width="2"/>
          <line id="Line_14" data-name="Line 14" y2="10" transform="translate(4)" fill="none" stroke="#13a740" stroke-linecap="round" stroke-width="2"/>
        </g>
      </g>
    </g>
    <g id="Group_12" data-name="Group 12">
      <g id="Group_9" data-name="Group 9" transform="translate(43.504 18.146)">
        <path id="Path_17" data-name="Path 17" d="M218.485,443.163V435.6l-3.98-4.483v-1.968" transform="translate(-202.504 -429.146)" fill="none" stroke="#13a740" stroke-linecap="round" stroke-linejoin="bevel" stroke-width="1"/>
        <path id="Path_17-2" data-name="Path 17" d="M218.485,443.163v-6.669l-3.98-4.232v-3.116" transform="translate(-205.504 -429.146)" fill="none" stroke="#13a740" stroke-linecap="round" stroke-linejoin="bevel" stroke-width="1"/>
        <path id="Path_17-3" data-name="Path 17" d="M218.485,443.163v-5.778l-3.98-4.328v-3.911" transform="translate(-208.504 -429.146)" fill="none" stroke="#13a740" stroke-linecap="round" stroke-linejoin="bevel" stroke-width="1"/>
        <path id="Path_17-4" data-name="Path 17" d="M218.485,443.163V438l-3.98-3.98v-4.873" transform="translate(-211.504 -429.146)" fill="none" stroke="#13a740" stroke-linecap="round" stroke-linejoin="bevel" stroke-width="1"/>
        <path id="Path_17-5" data-name="Path 17" d="M218.485,443.163v-4.275l-3.98-3.956v-5.786" transform="translate(-214.504 -429.146)" fill="none" stroke="#13a740" stroke-linecap="round" stroke-linejoin="bevel" stroke-width="1"/>
        <path id="Path_18" data-name="Path 18" d="M218.485,443.163v-3.219l-3.98-3.918v-6.879" transform="translate(-217.504 -429.146)" fill="none" stroke="#13a740" stroke-linecap="round" stroke-linejoin="bevel" stroke-width="1"/>
      </g>
      <g id="Group_11" data-name="Group 11" transform="translate(64.504 18.146)">
        <path id="Path_17-6" data-name="Path 17" d="M214.5,443.163V435.6l3.98-4.483v-1.968" transform="translate(-214.504 -429.146)" fill="none" stroke="#13a740" stroke-linecap="round" stroke-linejoin="bevel" stroke-width="1"/>
        <path id="Path_17-7" data-name="Path 17" d="M214.5,443.163v-6.669l3.98-4.232v-3.116" transform="translate(-211.504 -429.146)" fill="none" stroke="#13a740" stroke-linecap="round" stroke-linejoin="bevel" stroke-width="1"/>
        <path id="Path_17-8" data-name="Path 17" d="M214.5,443.163v-5.778l3.98-4.328v-3.911" transform="translate(-208.504 -429.146)" fill="none" stroke="#13a740" stroke-linecap="round" stroke-linejoin="bevel" stroke-width="1"/>
        <path id="Path_17-9" data-name="Path 17" d="M214.5,443.163V438l3.98-3.98v-4.873" transform="translate(-205.504 -429.146)" fill="none" stroke="#13a740" stroke-linecap="round" stroke-linejoin="bevel" stroke-width="1"/>
        <path id="Path_17-10" data-name="Path 17" d="M214.5,443.163v-4.275l3.98-3.956v-5.786" transform="translate(-202.504 -429.146)" fill="none" stroke="#13a740" stroke-linecap="round" stroke-linejoin="bevel" stroke-width="1"/>
        <path id="Path_18-2" data-name="Path 18" d="M214.5,443.163v-3.219l3.98-3.918v-6.879" transform="translate(-199.504 -429.146)" fill="none" stroke="#13a740" stroke-linecap="round" stroke-linejoin="bevel" stroke-width="1"/>
      </g>
    </g>
    <g id="Group_13" data-name="Group 13" transform="translate(41.504 92.146)">
      <g id="Group_9-2" data-name="Group 9" transform="translate(-1)">
        <path id="Path_17-11" data-name="Path 17" d="M218.485,429.146v7.566L214.5,441.2v1.968" transform="translate(-199.504 -429.146)" fill="none" stroke="#13a740" stroke-linecap="round" stroke-linejoin="bevel" stroke-width="1"/>
        <path id="Path_17-12" data-name="Path 17" d="M218.485,429.146v6.669l-3.98,4.232v3.116" transform="translate(-202.504 -429.146)" fill="none" stroke="#13a740" stroke-linecap="round" stroke-linejoin="bevel" stroke-width="1"/>
        <path id="Path_17-13" data-name="Path 17" d="M218.485,429.146v5.778l-3.98,4.328v3.911" transform="translate(-205.504 -429.146)" fill="none" stroke="#13a740" stroke-linecap="round" stroke-linejoin="bevel" stroke-width="1"/>
        <path id="Path_17-14" data-name="Path 17" d="M218.485,429.146v5.164l-3.98,3.98v4.873" transform="translate(-208.504 -429.146)" fill="none" stroke="#13a740" stroke-linecap="round" stroke-linejoin="bevel" stroke-width="1"/>
        <path id="Path_17-15" data-name="Path 17" d="M218.485,429.146v4.275l-3.98,3.956v5.786" transform="translate(-211.504 -429.146)" fill="none" stroke="#13a740" stroke-linecap="round" stroke-linejoin="bevel" stroke-width="1"/>
        <path id="Path_18-3" data-name="Path 18" d="M218.485,429.146v3.219l-3.98,3.918v6.879" transform="translate(-214.504 -429.146)" fill="none" stroke="#13a740" stroke-linecap="round" stroke-linejoin="bevel" stroke-width="1"/>
      </g>
      <g id="Group_11-2" data-name="Group 11" transform="translate(23)">
        <path id="Path_17-16" data-name="Path 17" d="M214.5,429.146v7.566l3.98,4.483v1.968" transform="translate(-214.504 -429.146)" fill="none" stroke="#13a740" stroke-linecap="round" stroke-linejoin="bevel" stroke-width="1"/>
        <path id="Path_17-17" data-name="Path 17" d="M214.5,429.146v6.669l3.98,4.232v3.116" transform="translate(-211.504 -429.146)" fill="none" stroke="#13a740" stroke-linecap="round" stroke-linejoin="bevel" stroke-width="1"/>
        <path id="Path_17-18" data-name="Path 17" d="M214.5,429.146v5.778l3.98,4.328v3.911" transform="translate(-208.504 -429.146)" fill="none" stroke="#13a740" stroke-linecap="round" stroke-linejoin="bevel" stroke-width="1"/>
        <path id="Path_17-19" data-name="Path 17" d="M214.5,429.146v5.164l3.98,3.98v4.873" transform="translate(-205.504 -429.146)" fill="none" stroke="#13a740" stroke-linecap="round" stroke-linejoin="bevel" stroke-width="1"/>
        <path id="Path_17-20" data-name="Path 17" d="M214.5,429.146v4.275l3.98,3.956v5.786" transform="translate(-202.504 -429.146)" fill="none" stroke="#13a740" stroke-linecap="round" stroke-linejoin="bevel" stroke-width="1"/>
        <path id="Path_18-4" data-name="Path 18" d="M214.5,429.146v3.219l3.98,3.918v6.879" transform="translate(-199.504 -429.146)" fill="none" stroke="#13a740" stroke-linecap="round" stroke-linejoin="bevel" stroke-width="1"/>
      </g>
    </g>
    <g id="Group_14" data-name="Group 14" transform="translate(32.003 41.664) rotate(90)">
      <g id="Group_9-3" data-name="Group 9" transform="translate(-1)">
        <path id="Path_17-21" data-name="Path 17" d="M218.485,429.146v7.566L214.5,441.2v1.968" transform="translate(-199.504 -429.146)" fill="none" stroke="#13a740" stroke-linecap="round" stroke-linejoin="bevel" stroke-width="1"/>
        <path id="Path_17-22" data-name="Path 17" d="M218.485,429.146v6.669l-3.98,4.232v3.116" transform="translate(-202.504 -429.146)" fill="none" stroke="#13a740" stroke-linecap="round" stroke-linejoin="bevel" stroke-width="1"/>
        <path id="Path_17-23" data-name="Path 17" d="M218.485,429.146v5.778l-3.98,4.328v3.911" transform="translate(-205.504 -429.146)" fill="none" stroke="#13a740" stroke-linecap="round" stroke-linejoin="bevel" stroke-width="1"/>
        <path id="Path_17-24" data-name="Path 17" d="M218.485,429.146v5.164l-3.98,3.98v4.873" transform="translate(-208.504 -429.146)" fill="none" stroke="#13a740" stroke-linecap="round" stroke-linejoin="bevel" stroke-width="1"/>
        <path id="Path_17-25" data-name="Path 17" d="M218.485,429.146v4.275l-3.98,3.956v5.786" transform="translate(-211.504 -429.146)" fill="none" stroke="#13a740" stroke-linecap="round" stroke-linejoin="bevel" stroke-width="1"/>
        <path id="Path_18-5" data-name="Path 18" d="M218.485,429.146v3.219l-3.98,3.918v6.879" transform="translate(-214.504 -429.146)" fill="none" stroke="#13a740" stroke-linecap="round" stroke-linejoin="bevel" stroke-width="1"/>
      </g>
      <g id="Group_11-3" data-name="Group 11" transform="translate(23)">
        <path id="Path_17-26" data-name="Path 17" d="M214.5,429.146v7.566l3.98,4.483v1.968" transform="translate(-214.504 -429.146)" fill="none" stroke="#13a740" stroke-linecap="round" stroke-linejoin="bevel" stroke-width="1"/>
        <path id="Path_17-27" data-name="Path 17" d="M214.5,429.146v6.669l3.98,4.232v3.116" transform="translate(-211.504 -429.146)" fill="none" stroke="#13a740" stroke-linecap="round" stroke-linejoin="bevel" stroke-width="1"/>
        <path id="Path_17-28" data-name="Path 17" d="M214.5,429.146v5.778l3.98,4.328v3.911" transform="translate(-208.504 -429.146)" fill="none" stroke="#13a740" stroke-linecap="round" stroke-linejoin="bevel" stroke-width="1"/>
        <path id="Path_17-29" data-name="Path 17" d="M214.5,429.146v5.164l3.98,3.98v4.873" transform="translate(-205.504 -429.146)" fill="none" stroke="#13a740" stroke-linecap="round" stroke-linejoin="bevel" stroke-width="1"/>
        <path id="Path_17-30" data-name="Path 17" d="M214.5,429.146v4.275l3.98,3.956v5.786" transform="translate(-202.504 -429.146)" fill="none" stroke="#13a740" stroke-linecap="round" stroke-linejoin="bevel" stroke-width="1"/>
        <path id="Path_18-6" data-name="Path 18" d="M214.5,429.146v3.219l3.98,3.918v6.879" transform="translate(-199.504 -429.146)" fill="none" stroke="#13a740" stroke-linecap="round" stroke-linejoin="bevel" stroke-width="1"/>
      </g>
    </g>
    <g id="Group_15" data-name="Group 15" transform="translate(106.003 41.664) rotate(90)">
      <g id="Group_9-4" data-name="Group 9" transform="translate(-1)">
        <path id="Path_17-31" data-name="Path 17" d="M3.98,14.017V6.451L0,1.968V0" transform="translate(15)" fill="none" stroke="#13a740" stroke-linecap="round" stroke-linejoin="bevel" stroke-width="1"/>
        <path id="Path_17-32" data-name="Path 17" d="M3.98,14.017V7.348L0,3.116V0" transform="translate(12)" fill="none" stroke="#13a740" stroke-linecap="round" stroke-linejoin="bevel" stroke-width="1"/>
        <path id="Path_17-33" data-name="Path 17" d="M3.98,14.017V8.239L0,3.911V0" transform="translate(9)" fill="none" stroke="#13a740" stroke-linecap="round" stroke-linejoin="bevel" stroke-width="1"/>
        <path id="Path_17-34" data-name="Path 17" d="M3.98,14.017V8.853L0,4.873V0" transform="translate(6)" fill="none" stroke="#13a740" stroke-linecap="round" stroke-linejoin="bevel" stroke-width="1"/>
        <path id="Path_17-35" data-name="Path 17" d="M3.98,14.017V9.742L0,5.786V0" transform="translate(3)" fill="none" stroke="#13a740" stroke-linecap="round" stroke-linejoin="bevel" stroke-width="1"/>
        <path id="Path_18-7" data-name="Path 18" d="M3.98,14.017V10.8L0,6.879V0" fill="none" stroke="#13a740" stroke-linecap="round" stroke-linejoin="bevel" stroke-width="1"/>
      </g>
      <g id="Group_11-4" data-name="Group 11" transform="translate(23)">
        <path id="Path_17-36" data-name="Path 17" d="M0,14.017V6.451L3.98,1.968V0" fill="none" stroke="#13a740" stroke-linecap="round" stroke-linejoin="bevel" stroke-width="1"/>
        <path id="Path_17-37" data-name="Path 17" d="M0,14.017V7.348L3.98,3.116V0" transform="translate(3)" fill="none" stroke="#13a740" stroke-linecap="round" stroke-linejoin="bevel" stroke-width="1"/>
        <path id="Path_17-38" data-name="Path 17" d="M0,14.017V8.239L3.98,3.911V0" transform="translate(6)" fill="none" stroke="#13a740" stroke-linecap="round" stroke-linejoin="bevel" stroke-width="1"/>
        <path id="Path_17-39" data-name="Path 17" d="M0,14.017V8.853l3.98-3.98V0" transform="translate(9)" fill="none" stroke="#13a740" stroke-linecap="round" stroke-linejoin="bevel" stroke-width="1"/>
        <path id="Path_17-40" data-name="Path 17" d="M0,14.017V9.742L3.98,5.786V0" transform="translate(12)" fill="none" stroke="#13a740" stroke-linecap="round" stroke-linejoin="bevel" stroke-width="1"/>
        <path id="Path_18-8" data-name="Path 18" d="M0,14.017V10.8L3.98,6.879V0" transform="translate(15)" fill="none" stroke="#13a740" stroke-linecap="round" stroke-linejoin="bevel" stroke-width="1"/>
      </g>
    </g>
  </g>
</svg>
